<svg viewBox="0 0 292 84" height="84" preserveAspectRatio="xMidYMid meet" xmlns="http://www.w3.org/2000/svg">
  <defs>
    <style>@import url('https://fonts.googleapis.com/css2?family=Syne:wght@700;800&amp;display=swap');</style>

    <!-- Curvature gradient: light catches upper-left bevel, shadow falls on lower-right -->
    <linearGradient id="shieldBody" x1="15%" y1="0%" x2="85%" y2="100%">
      <stop offset="0%"   stop-color="#1A2645"/>
      <stop offset="35%"  stop-color="#0B1226"/>
      <stop offset="70%"  stop-color="#060A18"/>
      <stop offset="100%" stop-color="#02050E"/>
    </linearGradient>

    <!-- Top-down bevel: bright rim along the top, deep shadow at the bottom point -->
    <linearGradient id="shieldBevel" x1="50%" y1="0%" x2="50%" y2="100%">
      <stop offset="0%"   stop-color="#FFFFFF" stop-opacity="0.18"/>
      <stop offset="20%"  stop-color="#FFFFFF" stop-opacity="0.04"/>
      <stop offset="55%"  stop-color="#000000" stop-opacity="0"/>
      <stop offset="100%" stop-color="#000000" stop-opacity="0.55"/>
    </linearGradient>

    <!-- Soft specular blob in the upper-left to sell the curvature -->
    <radialGradient id="shieldGloss" cx="28%" cy="18%" r="55%">
      <stop offset="0%"   stop-color="#7AA8FF" stop-opacity="0.22"/>
      <stop offset="60%"  stop-color="#3D7EF5" stop-opacity="0.05"/>
      <stop offset="100%" stop-color="#3D7EF5" stop-opacity="0"/>
    </radialGradient>

    <radialGradient id="forgeInterior" cx="28" cy="41" r="34" gradientUnits="userSpaceOnUse">
      <stop offset="0%"   stop-color="#E8921F" stop-opacity="0.30"/>
      <stop offset="35%"  stop-color="#E8921F" stop-opacity="0.10"/>
      <stop offset="70%"  stop-color="#C06010" stop-opacity="0.04"/>
      <stop offset="100%" stop-color="#070C18"  stop-opacity="0"/>
    </radialGradient>

    <radialGradient id="weldPool" cx="50%" cy="30%" r="50%">
      <stop offset="0%"   stop-color="#FFD060" stop-opacity="0.6"/>
      <stop offset="50%"  stop-color="#E8921F" stop-opacity="0.3"/>
      <stop offset="100%" stop-color="#E8921F" stop-opacity="0"/>
    </radialGradient>

    <radialGradient id="sparkCore" cx="40%" cy="35%" r="60%">
      <stop offset="0%"   stop-color="#FFE8A0"/>
      <stop offset="45%"  stop-color="#FFAA30"/>
      <stop offset="100%" stop-color="#E8721F"/>
    </radialGradient>

    <!-- Shield: three peaks at top (centre tallest), 50% longer body tapering to a single bottom point -->
    <clipPath id="plateClip">
      <path d="M 3 10 C 8 20 18 20 28 2 C 38 20 48 20 53 10 L 53 34 C 53 58 44 72 28 80 C 12 72 3 58 3 34 Z"/>
    </clipPath>

    <filter id="rayGlow" x="-50%" y="-50%" width="200%" height="200%">
      <feGaussianBlur stdDeviation="1.8" result="blur"/>
      <feMerge><feMergeNode in="blur"/><feMergeNode in="SourceGraphic"/></feMerge>
    </filter>
    <filter id="coreGlow" x="-80%" y="-80%" width="260%" height="260%">
      <feGaussianBlur stdDeviation="3.5" result="blur"/>
      <feMerge><feMergeNode in="blur"/><feMergeNode in="SourceGraphic"/></feMerge>
    </filter>
    <filter id="wGlow" x="-30%" y="-30%" width="160%" height="160%">
      <feGaussianBlur stdDeviation="1.2" result="blur"/>
      <feMerge><feMergeNode in="blur"/><feMergeNode in="SourceGraphic"/></feMerge>
    </filter>
  </defs>

  <!-- Shield body: curved metallic base -->
  <path d="M 3 10 C 8 20 18 20 28 2 C 38 20 48 20 53 10 L 53 34 C 53 58 44 72 28 80 C 12 72 3 58 3 34 Z"
        fill="url(#shieldBody)" stroke="#3D7EF5" stroke-width="1.5" stroke-linejoin="round"/>

  <!-- Curvature shading layered inside the shield -->
  <g clip-path="url(#plateClip)">
    <rect x="0" y="0" width="56" height="84" fill="url(#shieldBevel)"/>
    <rect x="0" y="0" width="56" height="84" fill="url(#shieldGloss)"/>
    <rect x="0" y="0" width="56" height="84" fill="url(#forgeInterior)"/>
  </g>

  <!-- Inner border traces the same shape, sits a hair inside -->
  <path d="M 6 14 C 11 22 19 22 28 6 C 37 22 45 22 50 14 L 50 34 C 50 56 42 69 28 75 C 14 69 6 56 6 34 Z"
        fill="none" stroke="#152040" stroke-width="0.75" stroke-linejoin="round"/>

  <!-- W letterform — centred in the shield, original W proportions, 10% smaller -->
  <polyline points="12.7,29.3 19.9,52.7 28,40 36.1,52.7 43.3,29.3"
            fill="none" stroke="#B8CCEE" stroke-width="1.5"
            stroke-linejoin="round" stroke-linecap="round"
            filter="url(#wGlow)" clip-path="url(#plateClip)"/>

  <!-- Forge interior elements clipped to shield -->
  <g clip-path="url(#plateClip)">

    <circle cx="28" cy="40" r="22" fill="none"
            stroke="#E8921F" stroke-width="0.5" opacity="0.12"/>
    <circle cx="28" cy="40" r="16" fill="none"
            stroke="#E8921F" stroke-width="0.8" opacity="0.22"/>
    <circle cx="28" cy="40" r="11"
            fill="rgba(232,146,31,0.08)"
            stroke="#E8921F" stroke-width="1" opacity="0.45"/>

    <ellipse cx="28" cy="50" rx="9" ry="4.5"
             fill="url(#weldPool)" opacity="0.7"/>

    <!-- Cardinal rays -->
    <line x1="28" y1="30" x2="28" y2="10"
          stroke="#E8921F" stroke-width="2" stroke-linecap="round"
          filter="url(#rayGlow)" opacity="0.9"/>
    <line x1="28" y1="50" x2="28" y2="74"
          stroke="#E8921F" stroke-width="2" stroke-linecap="round"
          filter="url(#rayGlow)" opacity="0.9"/>
    <line x1="19" y1="40" x2="5"  y2="40"
          stroke="#E8921F" stroke-width="2" stroke-linecap="round"
          filter="url(#rayGlow)" opacity="0.9"/>
    <line x1="37" y1="40" x2="51" y2="40"
          stroke="#E8921F" stroke-width="2" stroke-linecap="round"
          filter="url(#rayGlow)" opacity="0.9"/>

    <!-- Diagonal rays -->
    <line x1="33.5" y1="34.5" x2="40" y2="28"
          stroke="#E8921F" stroke-width="1.4" stroke-linecap="round"
          filter="url(#rayGlow)" opacity="0.72"/>
    <line x1="22.5" y1="34.5" x2="16" y2="28"
          stroke="#E8921F" stroke-width="1.4" stroke-linecap="round"
          filter="url(#rayGlow)" opacity="0.72"/>
    <line x1="33.5" y1="45.5" x2="40" y2="52"
          stroke="#E8921F" stroke-width="1.4" stroke-linecap="round"
          filter="url(#rayGlow)" opacity="0.72"/>
    <line x1="22.5" y1="45.5" x2="16" y2="52"
          stroke="#E8921F" stroke-width="1.4" stroke-linecap="round"
          filter="url(#rayGlow)" opacity="0.72"/>

    <!-- Spark core -->
    <circle cx="28" cy="40" r="7.5"
            fill="rgba(232,146,31,0.35)"
            filter="url(#coreGlow)"/>
    <circle cx="28" cy="40" r="5.5"
            fill="url(#sparkCore)"/>
    <circle cx="27" cy="39" r="2.2"
            fill="#FFF0B0" opacity="0.9"/>
  </g>

  <!-- Wordmark — vertically centred in the 84-tall canvas -->
  <text x="70" y="38" font-family="Syne, sans-serif" font-weight="700"
        font-size="18" fill="#9AAED0" letter-spacing="3.5">WELD</text>
  <text x="70" y="60" font-family="Syne, sans-serif" font-weight="800"
        font-size="18" fill="#F0E8D8" letter-spacing="3.5">FORGE</text>
  <line x1="70" y1="42.5" x2="205" y2="42.5" stroke="#1A2E5A" stroke-width="0.75"/>

  <!-- Protocol dots -->
  <circle cx="62" cy="36" r="2" fill="#3D7EF5"/>
  <circle cx="62" cy="58" r="2.5" fill="#E8921F" filter="url(#rayGlow)"/>
</svg>
